<?xml version="1.0" encoding="UTF-8"?>
<!DOCTYPE svg PUBLIC "-//W3C//DTD SVG 1.1//EN" "http://www.w3.org/Graphics/SVG/1.1/DTD/svg11.dtd">
<svg xmlns="http://www.w3.org/2000/svg" version="1.1" width="182px" height="43px" style="shape-rendering:geometricPrecision; text-rendering:geometricPrecision; image-rendering:optimizeQuality; fill-rule:evenodd; clip-rule:evenodd" xmlns:xlink="http://www.w3.org/1999/xlink">
<g><path style="opacity:0.838" fill="#ce2df7" d="M 5.5,-0.5 C 11.5,-0.5 17.5,-0.5 23.5,-0.5C 31.3343,1.43636 39.3343,2.10303 47.5,1.5C 44.9407,6.89747 40.774,10.2308 35,11.5C 27.3344,21.9938 19.5011,32.3271 11.5,42.5C 9.5,42.5 7.5,42.5 5.5,42.5C 4.52435,41.1851 3.52435,39.8518 2.5,38.5C 3.66667,36.1667 4.83333,33.8333 6,31.5C 8.06621,34.1319 10.5662,34.7986 13.5,33.5C 18.5,26.1667 23.5,18.8333 28.5,11.5C 18.9698,7.99861 9.30309,7.66527 -0.5,10.5C -0.5,9.83333 -0.5,9.16667 -0.5,8.5C 2.23067,6.05365 4.23067,3.05365 5.5,-0.5 Z"/></g>
<g><path style="opacity:0.827" fill="#ce2df7" d="M 129.5,-0.5 C 131.167,-0.5 132.833,-0.5 134.5,-0.5C 137.751,3.77355 136.918,6.77355 132,8.5C 127.082,6.77355 126.249,3.77355 129.5,-0.5 Z"/></g>
<g><path style="opacity:0.8" fill="#ce2df7" d="M 108.5,0.5 C 109.5,0.5 110.5,0.5 111.5,0.5C 111.334,4.84611 111.501,9.17944 112,13.5C 114.593,11.1627 117.426,10.996 120.5,13C 122.742,14.9857 123.742,17.4857 123.5,20.5C 124.843,28.9397 121.51,33.7731 113.5,35C 116.238,28.4392 116.071,21.9392 113,15.5C 111.612,20.3722 111.112,25.3722 111.5,30.5C 108.572,30.8516 105.738,31.5183 103,32.5C 102.5,22.5056 102.334,12.5056 102.5,2.5C 104.786,2.40505 106.786,1.73838 108.5,0.5 Z"/></g>
<g><path style="opacity:0.819" fill="#ce2df7" d="M 149.5,0.5 C 152.5,0.5 155.5,0.5 158.5,0.5C 158.789,3.64917 158.289,6.64917 157,9.5C 155.414,8.62404 153.914,7.62404 152.5,6.5C 151.548,8.04533 151.215,9.71199 151.5,11.5C 153.924,11.1924 156.257,11.5258 158.5,12.5C 157.754,13.7362 157.421,15.0695 157.5,16.5C 155.5,16.5 153.5,16.5 151.5,16.5C 151.5,22.5 151.5,28.5 151.5,34.5C 148.551,35.0126 145.718,35.0126 143,34.5C 142.83,28.8042 142.33,23.1376 141.5,17.5C 140.604,18.5063 139.938,18.5063 139.5,17.5C 140.833,15.1667 142.167,12.8333 143.5,10.5C 142.339,8.77625 142.505,7.10959 144,5.5C 145.73,3.59809 147.563,1.93142 149.5,0.5 Z"/></g>
<g><path style="opacity:0.825" fill="#ce2df7" d="M 43.5,10.5 C 46.8499,10.335 50.1832,10.5017 53.5,11C 57.9988,13.8079 58.6655,17.4745 55.5,22C 52.9556,23.092 50.2889,23.7586 47.5,24C 48.3992,25.2362 49.5659,26.0696 51,26.5C 57.4423,24.1398 57.609,25.6398 51.5,31C 47.428,31.9559 43.5946,31.4559 40,29.5C 38.5236,24.9241 38.1902,20.2574 39,15.5C 40.6336,13.9379 42.1336,12.2713 43.5,10.5 Z M 46.5,15.5 C 48.9754,16.6874 49.9754,18.6874 49.5,21.5C 48.5,21.5 47.5,21.5 46.5,21.5C 46.5,19.5 46.5,17.5 46.5,15.5 Z"/></g>
<g><path style="opacity:0.826" fill="#ce2df7" d="M 64.5,10.5 C 69.2752,10.421 73.7752,11.421 78,13.5C 79.5174,19.0802 79.8508,24.7469 79,30.5C 76.3135,31.713 73.4802,32.3797 70.5,32.5C 71.0081,29.8239 71.1747,27.1572 71,24.5C 68.9623,29.2324 65.4623,31.3991 60.5,31C 60,30.5 59.5,30 59,29.5C 56.9705,21.9015 58.8038,15.5682 64.5,10.5 Z M 66.5,17.5 C 68.3464,17.2222 69.6798,17.8888 70.5,19.5C 69.1387,21.0284 67.972,22.6951 67,24.5C 66.5034,22.1902 66.3367,19.8568 66.5,17.5 Z"/></g>
<g><path style="opacity:0.802" fill="#ce2df7" d="M 87.5,10.5 C 92.7154,9.70242 97.2154,11.0358 101,14.5C 101.49,15.7932 101.657,17.1266 101.5,18.5C 99.4534,18.5111 97.4534,18.8444 95.5,19.5C 93.9707,19.4712 92.804,18.8045 92,17.5C 90.3496,22.0598 91.8496,24.7265 96.5,25.5C 97.8139,24.6872 98.9805,23.6872 100,22.5C 99.9412,28.2174 96.9412,30.8841 91,30.5C 86.7968,31.0745 84.1301,29.4078 83,25.5C 82.3333,21.8333 82.3333,18.1667 83,14.5C 84.9923,13.6719 86.4923,12.3386 87.5,10.5 Z"/></g>
<g><path style="opacity:0.842" fill="#ce2df7" d="M 134.5,10.5 C 135.8,12.223 136.467,14.3897 136.5,17C 136.882,21.5019 137.215,26.0019 137.5,30.5C 134.545,31.1587 131.545,31.4921 128.5,31.5C 128.5,26.8333 128.5,22.1667 128.5,17.5C 127.167,17.5 125.833,17.5 124.5,17.5C 124.33,16.1779 124.663,15.0113 125.5,14C 128.865,13.4947 131.865,12.328 134.5,10.5 Z"/></g>
<g><path style="opacity:0.828" fill="#ce2df7" d="M 181.5,11.5 C 181.5,12.1667 181.5,12.8333 181.5,13.5C 180.273,20.6878 179.107,28.0212 178,35.5C 176.334,37.9957 174.5,40.329 172.5,42.5C 170.5,42.5 168.5,42.5 166.5,42.5C 162.647,41.5663 159.98,39.233 158.5,35.5C 159.5,34.1667 160.5,32.8333 161.5,31.5C 164.234,33.3706 167.234,34.3706 170.5,34.5C 170.665,31.1501 170.498,27.8168 170,24.5C 168.122,26.0429 166.622,27.8762 165.5,30C 163.888,30.7203 162.388,30.5536 161,29.5C 160.555,23.8202 160.055,18.1535 159.5,12.5C 162.86,12.3841 166.193,12.0508 169.5,11.5C 169.172,20.6477 170.172,20.8144 172.5,12C 175.482,11.502 178.482,11.3354 181.5,11.5 Z"/></g>
</svg>
